<svg xmlns="http://www.w3.org/2000/svg" fill="none" width="88" height="88" viewBox="0 0 87.0188 88"><defs><clipPath id="master_svg0_1048_025620"><rect x="0" y="0" width="87.01881408691406" height="88" rx="0"/></clipPath><linearGradient x1="0.3447889983654022" y1="0.5865996479988098" x2="1.3666304980336785" y2="0.01821478265339005" id="master_svg1_1048_025549"><stop offset="0%" stop-color="#7921FF" stop-opacity="1"/><stop offset="46.99999988079071%" stop-color="#8C3BF9" stop-opacity="1"/><stop offset="100%" stop-color="#A055F5" stop-opacity="1"/></linearGradient><linearGradient x1="2.220446049250313e-16" y1="0.5000197291374207" x2="1" y2="0.5000197291374207" id="master_svg2_1048_025546"><stop offset="0%" stop-color="#FFFFFF" stop-opacity="1"/><stop offset="100%" stop-color="#D5C8FE" stop-opacity="1"/></linearGradient><linearGradient x1="5.440092820663267e-15" y1="0.5" x2="1" y2="0.5" id="master_svg3_1048_025552"><stop offset="0%" stop-color="#FFFFFF" stop-opacity="1"/><stop offset="100%" stop-color="#D5C8FE" stop-opacity="1"/></linearGradient></defs><g><g clip-path="url(#master_svg0_1048_025620)"><g><path d="M21.7978,0L44.2945,15.0166L65.568,0L87.0163,16.0638L87.0188,72.461L65.9175,88L44.2945,74.0807L21.7978,88L0,72.461L0,16.0638L21.7978,0Z" fill="url(#master_svg1_1048_025549)" fill-opacity="1" style="mix-blend-mode:passthrough"/></g><g><path d="M4.88287353515625,18.158347265625L81.78667353515625,70.091547265625L81.78667353515625,18.158347265625L66.26707353515624,6.658447265625L66.26707353515624,35.444447265625L21.44837353515625,6.658447265625L4.88287353515625,18.158347265625Z" fill="url(#master_svg2_1048_025546)" fill-opacity="1" style="mix-blend-mode:passthrough"/></g><g><path d="M21.2760009765625,54.600067138671875L21.2760009765625,82.06886713867188L43.063800976562504,68.94426713867188L21.2760009765625,54.600067138671875Z" fill="url(#master_svg3_1048_025552)" fill-opacity="1" style="mix-blend-mode:passthrough"/></g><g><path d="M66.2795556640625,6.658447265625L66.2670556640625,35.444447265625L44.2945556640625,21.332647265625L66.2795556640625,6.658447265625Z" fill="#671FFD" fill-opacity="1" style="mix-blend-mode:passthrough"/></g><g><path d="M4.88287353515625,18.15838623046875L4.88287353515625,43.99998623046875L64.19267353515625,82.06888623046875L81.78667353515625,70.09158623046875L4.88287353515625,18.15838623046875Z" fill="#671FFD" fill-opacity="1" style="mix-blend-mode:passthrough"/></g><g><path d="M4.88287353515625,43.097686767578125L4.88287353515625,70.09158676757812L21.27617353515625,82.06878676757813L21.27617353515625,53.05292676757813L4.88287353515625,43.097686767578125Z" fill="#671FFD" fill-opacity="1" style="mix-blend-mode:passthrough"/></g></g></g></svg>
