<svg xmlns="http://www.w3.org/2000/svg" xmlns:xlink="http://www.w3.org/1999/xlink" fill="none" version="1.1" width="386" height="88" viewBox="0 0 386 88"><defs><clipPath id="master_svg0_1048_025620"><rect x="0" y="0" width="87.01881408691406" height="88" rx="0"/></clipPath><linearGradient x1="0.3447889983654022" y1="0.5865996479988098" x2="1.3666304980336785" y2="0.01821478265339005" id="master_svg1_1048_025549"><stop offset="0%" stop-color="#7921FF" stop-opacity="1"/><stop offset="46.99999988079071%" stop-color="#8C3BF9" stop-opacity="1"/><stop offset="100%" stop-color="#A055F5" stop-opacity="1"/></linearGradient><linearGradient x1="2.220446049250313e-16" y1="0.5000197291374207" x2="1" y2="0.5000197291374207" id="master_svg2_1048_025546"><stop offset="0%" stop-color="#FFFFFF" stop-opacity="1"/><stop offset="100%" stop-color="#D5C8FE" stop-opacity="1"/></linearGradient><linearGradient x1="5.440092820663267e-15" y1="0.5" x2="1" y2="0.5" id="master_svg3_1048_025552"><stop offset="0%" stop-color="#FFFFFF" stop-opacity="1"/><stop offset="100%" stop-color="#D5C8FE" stop-opacity="1"/></linearGradient></defs><g><g><g><path d="M136.8274,65.99433741340637C134.1239,65.99433741340637,133.0297,64.95313741340638,131.0698,62.62173741340637L111.78376,40.41723741340637L111.78376,65.99433741340637L102,65.99433741340637L102,30.66746741340637C102,27.662737413406372,103.55627,26.129237413406372,106.66349,26.129237413406372L109.08021,26.129237413406372C112.1874,26.129237413406372,113.4569,27.051597413406373,115.1831,29.07173741340637L132.8544,49.37493741340637L132.8544,26.129237413406372L142.5851,26.129237413406372L142.5851,61.886137413406374C142.5851,64.58533741340636,141.321,65.99433741340637,138.8458,65.99433741340637L136.8327,65.99433741340637L136.8274,65.99433741340637Z" fill="#FFFFFF" fill-opacity="1" style="mix-blend-mode:passthrough"/></g><g><path d="M162.7952335571289,65.9942769241333C153.87190355712892,65.9942769241333,147.3653335571289,59.7358769241333,147.3653335571289,50.6593769241333C147.3653335571289,41.5829869241333,153.87190355712892,35.3867769241333,162.7952335571289,35.3867769241333L170.1091335571289,35.3867769241333C176.7272335571289,35.3867769241333,179.95133355712892,39.4327169241333,179.95133355712892,45.1988569241333C179.95133355712892,50.534976924133304,177.18933355712892,53.2963769241333,170.56593355712891,53.2963769241333L160.3200335571289,53.2963769241333L160.3200335571289,47.7169769241333L168.5528335571289,47.7169769241333C170.05073355712892,47.7169769241333,170.7996335571289,47.043576924133305,170.7996335571289,45.5723769241333C170.7996335571289,44.1011169241333,170.1091335571289,43.3032269241333,168.61133355712892,43.3032269241333L162.7421335571289,43.3032269241333C159.3480335571289,43.3032269241333,156.9260235571289,45.9401769241333,156.9260235571289,50.6028769241333C156.9260235571289,55.2655769241333,159.3427335571289,57.5969769241333,162.7421335571289,57.5969769241333L178.4003335571289,57.5969769241333L178.4003335571289,65.9999769241333L162.80053355712892,65.9999769241333L162.7952335571289,65.9942769241333Z" fill="#FFFFFF" fill-opacity="1" style="mix-blend-mode:passthrough"/></g><g><path d="M198.54684810791017,65.9942769241333C189.04993810791015,65.9942769241333,184.15274810791016,60.7204769241333,184.15274810791016,51.3950769241333L184.15274810791016,35.3867769241333L193.76654810791015,35.3867769241333L193.76654810791015,51.3950769241333C193.76654810791015,54.8298769241333,195.49274810791016,56.6688769241333,198.77524810791016,56.6688769241333L203.84244810791014,56.6688769241333C207.18334810791015,56.6688769241333,208.85114810791015,54.8298769241333,208.85114810791015,51.3950769241333L208.85114810791015,35.3867769241333L218.46494810791015,35.3867769241333L218.46494810791015,51.3950769241333C218.46494810791015,60.714776924133304,213.57304810791015,65.9942769241333,204.07084810791017,65.9942769241333L198.54684810791017,65.9942769241333Z" fill="#FFFFFF" fill-opacity="1" style="mix-blend-mode:passthrough"/></g><g><path d="M223.24544525146484,65.9942769241333L223.24544525146484,49.9860769241333C223.24544525146484,40.7228669241333,228.19574525146484,35.3867769241333,237.58114525146485,35.3867769241333L245.63874525146485,35.3867769241333L245.63874525146485,44.7065269241333L237.80954525146484,44.7065269241333C234.52704525146484,44.7065269241333,232.85925525146484,46.4267769241333,232.85925525146484,49.9181769241333L232.85925525146484,65.9886769241333L223.24545335615485,65.9886769241333L223.24544525146484,65.9942769241333Z" fill="#FFFFFF" fill-opacity="1" style="mix-blend-mode:passthrough"/></g><g><path d="M257.61592514648436,65.99431016693116C251.57144514648436,65.99431016693116,248.57577514648438,62.25391016693115,248.57577514648438,56.980110166931155C248.57577514648438,51.70621016693116,251.57146514648437,47.90361016693115,257.61592514648436,47.90361016693115L268.3238751464844,47.90361016693115L268.3238751464844,53.85091016693116L259.8042751464844,53.85091016693116C258.36484514648436,53.85091016693116,257.67434514648437,54.58651016693115,257.67434514648437,55.995510166931155C257.67434514648437,57.40451016693115,258.3648351464844,58.14011016693115,259.6873751464844,58.14011016693115L271.14427514648435,58.14011016693115L271.14427514648435,49.30701016693115C271.14427514648435,45.872210166931154,269.4764751464844,44.095350166931155,266.13557514648437,44.095350166931155L250.13203514648438,44.095350166931155L250.13203514648438,35.38671016693115L266.2523751464844,35.38671016693115C275.7493751464844,35.38671016693115,280.58807514648436,40.660560166931155,280.58807514648436,49.98601016693115L280.58807514648436,65.99421016693115L257.61592514648436,65.99431016693116Z" fill="#FFFFFF" fill-opacity="1" style="mix-blend-mode:passthrough"/></g><g><path d="M286.2290344238281,65.99430000000001L286.2290344238281,23L295.84283442382815,23L295.84283442382815,65.99430000000001L286.2290344238281,65.99430000000001Z" fill="#FFFFFF" fill-opacity="1" style="mix-blend-mode:passthrough"/></g><g><path d="M326.46894541015627,65.99423444099426L326.46894541015627,56.182234440994264L313.57264541015627,56.182234440994264C306.3171054101563,56.182234440994264,301.02154541015625,51.15163444099426,301.02154541015625,43.67093444099426L301.02154541015625,26.12919860099426L311.15584541015625,26.12919860099426L311.15584541015625,42.012934440994265C311.15584541015625,44.71213444099426,312.88204541015625,46.42673444099427,315.24574541015625,46.42673444099427L326.46894541015627,46.42673444099427L326.46894541015627,26.123534440994263L336.54484541015626,26.123534440994263L336.54484541015626,46.42673444099427L340.45934541015623,46.42673444099427L340.45934541015623,56.17653444099426L336.54484541015626,56.17653444099426L336.54484541015626,65.98863444099426L326.46894541015627,65.98863444099426L326.46894541015627,65.99423444099426Z" fill="#FFFFFF" fill-opacity="1" style="mix-blend-mode:passthrough"/></g><g><path d="M344.7191162109375,65.99433741340637L344.7191162109375,26.129237413406372L366.2519162109375,26.129237413406372C377.6504162109375,26.129237413406372,386.0000162109375,34.16449741340637,386.0000162109375,46.05893741340637C386.0000162109375,57.95333741340637,377.6504162109375,65.98863741340637,366.2519162109375,65.98863741340637L344.7191162109375,65.98863741340637L344.7191162109375,65.99433741340637ZM366.9424162109375,55.68993741340637C372.1795162109375,55.68993741340637,375.9241162109375,51.76283741340637,375.9241162109375,46.05893741340637C375.9241162109375,40.35503741340637,372.18481621093747,36.37133741340637,366.9424162109375,36.37133741340637L354.7950162109375,36.37133741340637L354.7950162109375,55.68993741340637L366.9424162109375,55.68993741340637Z" fill="#FFFFFF" fill-opacity="1" style="mix-blend-mode:passthrough"/></g></g><g clip-path="url(#master_svg0_1048_025620)"><g><path d="M21.7978,0L44.2945,15.0166L65.568,0L87.0163,16.0638L87.0188,72.461L65.9175,88L44.2945,74.0807L21.7978,88L0,72.461L0,16.0638L21.7978,0Z" fill="url(#master_svg1_1048_025549)" fill-opacity="1" style="mix-blend-mode:passthrough"/></g><g><path d="M4.88287353515625,18.158347265625L81.78667353515625,70.091547265625L81.78667353515625,18.158347265625L66.26707353515624,6.658447265625L66.26707353515624,35.444447265625L21.44837353515625,6.658447265625L4.88287353515625,18.158347265625Z" fill="url(#master_svg2_1048_025546)" fill-opacity="1" style="mix-blend-mode:passthrough"/></g><g><path d="M21.2760009765625,54.600067138671875L21.2760009765625,82.06886713867188L43.063800976562504,68.94426713867188L21.2760009765625,54.600067138671875Z" fill="url(#master_svg3_1048_025552)" fill-opacity="1" style="mix-blend-mode:passthrough"/></g><g><path d="M66.2795556640625,6.658447265625L66.2670556640625,35.444447265625L44.2945556640625,21.332647265625L66.2795556640625,6.658447265625Z" fill="#671FFD" fill-opacity="1" style="mix-blend-mode:passthrough"/></g><g><path d="M4.88287353515625,18.15838623046875L4.88287353515625,43.99998623046875L64.19267353515625,82.06888623046875L81.78667353515625,70.09158623046875L4.88287353515625,18.15838623046875Z" fill="#671FFD" fill-opacity="1" style="mix-blend-mode:passthrough"/></g><g><path d="M4.88287353515625,43.097686767578125L4.88287353515625,70.09158676757812L21.27617353515625,82.06878676757813L21.27617353515625,53.05292676757813L4.88287353515625,43.097686767578125Z" fill="#671FFD" fill-opacity="1" style="mix-blend-mode:passthrough"/></g></g></g></svg>