<?xml version="1.0" encoding="utf-8"?>
<!-- Generator: Adobe Illustrator 21.0.0, SVG Export Plug-In . SVG Version: 6.00 Build 0)  -->
<svg version="1.1" id="图层_1" xmlns="http://www.w3.org/2000/svg" xmlns:xlink="http://www.w3.org/1999/xlink" x="0px" y="0px"
	 viewBox="0 0 1570.1 333" style="enable-background:new 0 0 1570.1 333;" xml:space="preserve">
<style type="text/css">
	.st0{fill:url(#SVGID_2_);}
	.st1{fill:#FFFFFF;}
	.st2{clip-path:url(#SVGID_4_);fill:url(#SVGID_5_);}
	.st3{fill:#30AD9E;}
	.st4{fill:#0073BA;}
	.st5{fill:url(#SVGID_6_);}
	.st6{fill:url(#SVGID_7_);}
</style>
<g>
	<g>
		<linearGradient id="SVGID_2_" gradientUnits="userSpaceOnUse" x1="354.2061" y1="71.7721" x2="-124.158" y2="424.3442">
			<stop  offset="0" style="stop-color:#0073BA"/>
			<stop  offset="0.3821" style="stop-color:#2DAC9E"/>
			<stop  offset="0.8151" style="stop-color:#2DAC9E"/>
		</linearGradient>
		<path id="SVGID_3_" class="st0" d="M203.2,323.5h2.3H203.2z M344.7,228.6L344.7,228.6 M264.2,85.7
			C264.2,85.7,264.2,85.7,264.2,85.7L264.2,85.7C264.2,85.6,264.2,85.7,264.2,85.7 M181.3,26.3l-0.1,0c-4.4,0.5-8.6,1.4-12.7,2.6
			c0,0,0,0,0,0c-23.9,5.7-46.1,15.8-65.8,29.4C94,64.3,85.9,70.9,78.3,78.1c-35.8,34.1-59.8,80.7-70.5,128.6
			c-4.5,20.3-6.7,41-6.4,61.8c0.1,4.8,2.3,55.1,8,55.1h16.9h19.2h142.1h9.2h8.8c-2.7-2.4-5.5-4.7-8.3-6.9c-2.5-2-5.1-3.9-7.7-5.7
			c-23.9-17-51.8-28.8-81.9-33.8c29.8,1.7,57.7,9.9,82.5,23.3c0-0.7,0-1.4,0-2.1c0-18.2-4-35.4-11.1-50.9c10.4,16.7,16.8,36.2,18,57
			c9.5,5.6,18.5,12.1,26.9,19.1h58.5c-0.3-2-0.4-4.1-0.4-6.1c0-10.7,3.6-20.5,9.6-28.4c5.1-6.6,11.8-11.8,19.7-14.9
			c1.3-0.4,2.7-0.9,3.9-1.4c0.5-0.2,0.9-0.4,1.3-0.6c0.1,0,0.2-0.1,0.3-0.1c0.4-0.2,0.8-0.4,1.2-0.6c0.5-0.2,0.9-0.4,1.4-0.7
			c0.4-0.2,0.8-0.4,1.3-0.7c0.5-0.3,1-0.6,1.5-0.9c0.4-0.2,0.7-0.5,1.1-0.7c0,0,0.1,0,0.1-0.1c0.4-0.3,0.8-0.5,1.2-0.8
			c0,0,0.1,0,0.1-0.1c0.4-0.2,0.7-0.5,1.1-0.8c0,0,0.1-0.1,0.1-0.1c0.4-0.3,0.8-0.6,1.2-0.9c0.4-0.4,0.9-0.7,1.3-1.1
			c0.2-0.2,0.4-0.4,0.6-0.6c0.8-0.8,1.7-1.5,2.4-2.3c0.4-0.4,0.8-0.8,1.2-1.2c0.8-0.8,1.5-1.7,2.2-2.6c0.1-0.2,0.3-0.3,0.4-0.5
			c0.5-0.6,0.9-1.2,1.3-1.8c0.1-0.2,0.3-0.4,0.4-0.6c0.2-0.3,0.4-0.7,0.6-1c0.1-0.2,0.2-0.4,0.3-0.5c0.1-0.1,0.2-0.3,0.3-0.4
			c0.1-0.2,0.2-0.3,0.3-0.5c0.1-0.2,0.2-0.4,0.3-0.5c0.1-0.2,0.3-0.5,0.4-0.7c0.1-0.3,0.3-0.5,0.4-0.8c0.1-0.2,0.2-0.5,0.4-0.7
			c0.1-0.2,0.2-0.3,0.2-0.5c0.1-0.2,0.2-0.4,0.3-0.7c0.2-0.5,0.4-0.9,0.6-1.4c0.1-0.2,0.2-0.5,0.3-0.7c0.1-0.2,0.2-0.4,0.3-0.6
			c0,0,0-0.1,0-0.1c0.1-0.2,0.2-0.4,0.2-0.6c0.2-0.4,0.3-0.8,0.4-1.3c0.1-0.2,0.2-0.5,0.2-0.7c0.1-0.3,0.2-0.5,0.2-0.8
			c0.1-0.3,0.2-0.6,0.2-0.8c0-0.2,0.1-0.3,0.1-0.5c0.1-0.2,0.1-0.5,0.2-0.7c0.1-0.3,0.1-0.5,0.2-0.8c0-0.1,0.1-0.3,0.1-0.4
			c0-0.2,0.1-0.3,0.1-0.5c0-0.2,0.1-0.4,0.1-0.7c0.1-0.3,0.1-0.5,0.1-0.8c0-0.2,0.1-0.4,0.1-0.6c0-0.2,0.1-0.4,0.1-0.6
			c0-0.3,0.1-0.6,0.1-0.9c0-0.3,0.1-0.6,0.1-0.9c0-0.3,0.1-0.6,0.1-0.9c0-0.4,0.1-0.7,0.1-1.1c0-0.1,0-0.3,0-0.4
			c0-0.4,0-0.8,0.1-1.1c0-0.3,0-0.6,0-0.9c0-0.2,0-0.5,0-0.7c0-0.3,0-0.5,0-0.7c-0.3-11.2-7-20.8-16.6-25.3
			c-1.2-0.6-2.5-1.1-3.7-1.5c0,0,0,0,0,0c-1.4-0.4-2.8-0.7-4.2-1c0,0-0.1,0-0.1,0c-2.7-0.5-5.5-0.7-8.4-0.7c-7.9,0-15.3,2-21.9,5.4
			c-7.6,4-14,10.1-18.4,17.4c0,0,0,0,0,0c-1.5,2.6-2.8,5.3-3.9,8.2c0,0,0,0.1,0,0.1c-0.2,0.6-0.4,1.2-0.6,1.9c-1.3,4.3-2,8.9-2,13.7
			c0,0.5,0,1.1,0,1.6c-2.3-4.2-3.7-8.9-3.7-14c0-0.5,0-1,0-1.5c0.4-7.7,3.8-14.5,9.1-19.5c-3.4,2.6-6.9,5-10.7,7
			c-2.7,1.4-5.5,2.7-8.3,3.8c-1,0.4-2,0.7-3,1.1c-1.8,0.4-3.7,0.6-5.7,0.6c-4.8,0-9.4-1.2-13.4-3.3l-4.1-2.6
			c-2.7-1.9-5.3-3.9-7.7-6.1c-2.1-1.9-4.1-3.9-6-6c-7.9-8.8-13.7-19.4-16.8-31.1c-1.2-4.7-2-9.5-2.3-14.5
			c-6.8,2.4-12.4,7.2-15.8,13.4c-2.2,4.1-3.5,8.8-3.5,13.8c0,4.5,1,8.7,2.9,12.5c-4.7-5.1-7.5-11.9-7.5-19.4c0-3,0.5-5.8,1.3-8.5
			c1.7-5.6,5.1-10.4,9.5-13.9c-11.5-0.8-21.1-8.4-25-18.7c-0.6-1.7-1.6-4.1-1.4-5.8c2.7,1.7,4.8,4.4,7.3,6.3c2.5,1.9,5.2,3.6,8.1,5
			c5.7,2.9,11.9,4.8,18.1,6.1c9.5,2,19.3,2.8,28.9,4c9.1,1.2,18.1,0.3,27.1-1.1c0.8-0.1,1.7-0.3,2.5-0.4c0,0,0,0,0,0
			c0.4-0.1,0.9-0.2,1.3-0.3c0,0,0,0,0.1,0c1.5-0.3,3.1-0.4,4.7-0.4c2.2,0,4.4,0.2,6.5,0.7c1.3,0.5,2.6,0.9,3.9,1.2
			c2.1,0.5,4.2,0.7,6.5,0.7c14.5,0,26.5-10.6,28.6-24.5c0,0,0.1-0.1,0.1-0.1c0-0.1,0-0.1-0.1-0.2c-3.4-11.7-9.5-22.2-17.7-30.8
			c-2.5-2.7-5.3-5.2-8.2-7.5c0,0,0,0,0,0c-0.3-0.2-0.5-0.4-0.8-0.6c0,0,0,0-0.1,0c-2.5-2.1-4.5-4.9-5.6-8.1c0,0,0,0,0,0c0,0,0,0,0,0
			c0,0,0,0,0-0.1c-0.2-1-0.5-2-0.7-3c0,0,0,0,0,0c0-0.1,0-0.3-0.1-0.4c0,0,0,0-0.1,0c-0.3-1.3-0.7-2.6-1.1-3.9
			c-3.9-12.2-10.9-23.1-20-31.7c-13.6-12.9-31.9-20.8-52.1-20.8C187.2,25.8,184.2,26,181.3,26.3"/>
		<path class="st1" d="M324.3,253l-3.4-3.6c0.6-0.8,0.9-1.8,0.9-2.8c0-1.3-0.4-2.5-1.2-3.5l3.7-3.5c0.3-0.3,0.3-0.7,0-1
			c-0.3-0.3-0.7-0.3-1,0l-3.7,3.5l-2.4-2.5l3.7-3.5c0.3-0.3,0.3-0.7,0-1c-0.3-0.3-0.7-0.3-1,0l-3.7,3.5l-2.4-2.5l3.7-3.5
			c0.3-0.3,0.3-0.7,0-1c-0.3-0.3-0.7-0.3-1,0l-3.7,3.5l-2.4-2.5l3.7-3.5c0.3-0.3,0.3-0.7,0-1c-0.3-0.3-0.7-0.3-1,0l-3.7,3.5
			l-2.4-2.5l3.7-3.5c0.3-0.3,0.3-0.7,0-1c-0.3-0.3-0.7-0.3-1,0l-3.7,3.5l-2.3-2.4c0,0-0.1-0.1-0.1-0.1l3.7-3.5c0.3-0.3,0.3-0.7,0-1
			c-0.3-0.3-0.7-0.3-1,0l-3.8,3.6c0,0-0.1,0.1-0.1,0.2c-0.7-0.4-1.6-0.7-2.4-0.7c-1.3,0-2.5,0.4-3.5,1.3l-3.6-3.7
			c-0.3-0.3-0.7-0.3-1,0c-0.3,0.3-0.3,0.7,0,1l3.5,3.6l-2.5,2.4l-3.5-3.6c-0.3-0.3-0.7-0.3-1,0c-0.3,0.3-0.3,0.7,0,1l3.5,3.6
			l-2.5,2.4l-3.5-3.6c-0.3-0.3-0.7-0.3-1,0c-0.3,0.3-0.3,0.7,0,1l3.5,3.6l-2.5,2.4l-3.5-3.6c-0.3-0.3-0.7-0.3-1,0
			c-0.3,0.3-0.3,0.7,0,1l3.5,3.5l-2.5,2.4l-3.4-3.5c-0.3-0.3-0.7-0.3-1,0c-0.3,0.3-0.3,0.7,0,1l3.4,3.5l-2.5,2.4l-3.4-3.5
			c-0.3-0.3-0.7-0.3-1,0c-0.3,0.3-0.3,0.7,0,1l3.5,3.6c-1.2,1.8-1.2,4.2,0.1,6l-3.7,3.5c-0.3,0.3-0.3,0.7,0,1c0.3,0.3,0.7,0.3,1,0
			l3.6-3.5l2.4,2.5l-3.6,3.5c-0.3,0.3-0.3,0.7,0,1c0.3,0.3,0.7,0.3,1,0l3.7-3.5l2.4,2.5l-3.7,3.5c-0.3,0.3-0.3,0.7,0,1
			c0.3,0.3,0.7,0.3,1,0l3.7-3.5l2.4,2.5l-3.7,3.5c-0.3,0.3-0.3,0.7,0,1c0.3,0.3,0.7,0.3,1,0l3.7-3.5l2.4,2.5l-3.7,3.5
			c-0.3,0.3-0.3,0.7,0,1c0.3,0.3,0.7,0.3,1,0l3.7-3.5l2.4,2.5l-3.7,3.5c-0.3,0.3-0.3,0.7,0,1c0.3,0.3,0.7,0.3,1,0l3.8-3.6
			c0,0,0,0,0,0c0.8,0.5,1.8,0.8,2.8,0.9c0,0,0.1,0,0.1,0c1.3,0,2.5-0.5,3.4-1.3l3.4,3.6c0.3,0.3,0.7,0.3,1,0c0.3-0.3,0.3-0.7,0-1
			l-3.4-3.5l2.5-2.4l3.4,3.5c0.3,0.3,0.7,0.3,1,0c0.3-0.3,0.3-0.7,0-1l-3.4-3.5l2.5-2.4l3.4,3.5c0.3,0.3,0.7,0.3,1,0
			c0.3-0.3,0.3-0.7,0-1l-3.4-3.5l2.5-2.4l3.4,3.5c0.3,0.3,0.7,0.3,1,0c0.3-0.3,0.3-0.7,0-1l-3.4-3.5l2.5-2.4l3.4,3.5
			c0.3,0.3,0.7,0.3,1,0c0.3-0.3,0.3-0.7,0-1l-3.4-3.5l2.5-2.4l3.3,3.5c0.3,0.3,0.7,0.3,1,0C324.5,253.8,324.5,253.3,324.3,253
			 M301.4,266.1c-1.5,1.4-3.9,1.4-5.3-0.1l-16.5-17.3c-1.4-1.5-1.4-3.9,0.1-5.3l17.7-16.9c0.7-0.7,1.7-1,2.6-1c1,0,2,0.4,2.7,1.2
			l16.5,17.3c1.4,1.5,1.4,3.9-0.1,5.3L301.4,266.1z"/>
		<path class="st1" d="M314.7,243.5l-12.4-12.4c-1.6-1.6-4.2-1.6-5.8,0l-12.5,12.4c-1.6,1.6-1.6,4.2,0,5.8l12.4,12.4
			c1.6,1.6,4.2,1.6,5.8,0l12.5-12.4C316.3,247.7,316.3,245.1,314.7,243.5 M293.2,248c-1,1-2.6,1-3.6,0c-1-1-1-2.6,0-3.6
			c1-1,2.6-1,3.6,0C294.2,245.4,294.2,247,293.2,248 M306.9,251.3c-0.3,0.3-0.7,0.3-1,0c-0.3-0.3-0.3-0.7,0-1l4.4-4.4l-4.4-4.4
			c-0.3-0.3-0.3-0.7,0-1c0.3-0.3,0.7-0.3,1,0l5.4,5.4L306.9,251.3z"/>
		<path class="st1" d="M223.5,98.8c-0.2-3.7,3.3-7.2,7.3-7.2c3.9,0,7.3,3.5,7.3,7.3c0,4.3-3.9,7.6-7.4,7.5
			C227.3,106.4,223.3,103.1,223.5,98.8"/>
		<g>
			<defs>
				<path id="SVGID_1_" d="M204.2,11.8c-4.3,1.5-7.6,4.4-10.5,8.8c9.5-1.8,14.8,0.8,22.3,5.3c-1.6-5.5-3.6-10-7.5-13.3
					c-0.7-0.6-1.9-0.9-3-0.9C205,11.6,204.5,11.6,204.2,11.8"/>
			</defs>
			<clipPath id="SVGID_4_">
				<use xlink:href="#SVGID_1_"  style="overflow:visible;"/>
			</clipPath>
			
				<linearGradient id="SVGID_5_" gradientUnits="userSpaceOnUse" x1="-120.6826" y1="694.2629" x2="-119.7374" y2="694.2629" gradientTransform="matrix(-62.1197 22.2693 22.2693 62.1197 -22729.8281 -40429.4063)">
				<stop  offset="0" style="stop-color:#1E5497"/>
				<stop  offset="4.820770e-04" style="stop-color:#1E5497"/>
				<stop  offset="0.8745" style="stop-color:#43A784"/>
				<stop  offset="1" style="stop-color:#43A784"/>
			</linearGradient>
			<polygon class="st2" points="220.5,24.2 196.2,32.9 189.1,13.2 213.4,4.5 			"/>
		</g>
		<path class="st1" d="M160,67.8C160,67.8,160,67.8,160,67.8c-0.9,0.6-2.3,2.4-2.9,3.3c-1.1,1.6-2.3,3.2-3.2,4.9
			c-2,3.7-3.2,7.8-3.8,12c-0.7,5.2-0.1,10.4,1.2,15.5c-7-3.6-18.2-10.8-17.4-20c0.4-4.2,3.6-7.4,7.1-9.5
			C146.6,70.7,153.7,69.1,160,67.8"/>
		<path class="st1" d="M318.5,210.3c-0.6,3.7-4.5,8.1-10.2,7.5c-2.6-0.3-5-2.1-5.1-5.6c-0.1-5,5.3-9.6,10.2-8.9
			C317.1,203.8,319.2,206.6,318.5,210.3"/>
		<path class="st1" d="M299.9,211.5c0.1,3-2.3,7.1-6.7,7.5c-2.1,0.2-4.1-1-4.7-3.7c-0.8-3.9,2.6-8.4,6.5-8.6
			C297.9,206.5,299.9,208.5,299.9,211.5"/>
		<path class="st1" d="M333.2,215.4c0,3.6-3.1,8.4-8.8,8.8c-2.6,0.2-5.2-1.3-5.8-4.6c-0.9-4.8,3.6-10.1,8.5-10.2
			C330.8,209.4,333.3,211.8,333.2,215.4"/>
		<path class="st1" d="M339.9,229.9c-0.1,3.3-3.2,7.6-8.3,7.6c-2.4,0-4.7-1.4-5.1-4.4c-0.6-4.4,3.6-9,8.1-8.9
			C338,224.4,340.1,226.7,339.9,229.9"/>
		<path class="st1" d="M337.9,245.2c-0.9,2.5-4,5-7.4,4c-1.6-0.5-2.8-2-2.3-4.4c0.7-3.4,4.7-6,7.6-5
			C338,240.7,338.9,242.8,337.9,245.2"/>
		<path class="st1" d="M318.4,212.3c-0.6,3.7-4.5,8.1-10.2,7.5c-2.6-0.3-5-2.1-5.1-5.6c-0.1-5,5.3-9.6,10.2-8.9
			C317,205.8,319,208.6,318.4,212.3"/>
		<path class="st1" d="M299.8,213.5c0.1,3-2.3,7.1-6.7,7.5c-2.1,0.2-4.1-1-4.7-3.7c-0.8-3.9,2.6-8.4,6.5-8.6
			C297.8,208.5,299.8,210.5,299.8,213.5"/>
		<path class="st1" d="M333.1,217.3c0,3.6-3.1,8.4-8.8,8.8c-2.6,0.2-5.2-1.3-5.8-4.6c-0.9-4.8,3.6-10.1,8.5-10.2
			C330.7,211.3,333.2,213.7,333.1,217.3"/>
		<path class="st1" d="M339.8,231.9c-0.1,3.3-3.2,7.6-8.3,7.6c-2.4,0-4.7-1.4-5.1-4.4c-0.7-4.4,3.6-9,8.1-8.9
			C337.8,226.3,340,228.6,339.8,231.9"/>
		<path class="st1" d="M337.8,247.2c-0.9,2.5-4,5-7.4,4c-1.6-0.5-2.8-2-2.3-4.4c0.7-3.4,4.7-6,7.6-5
			C337.9,242.6,338.7,244.8,337.8,247.2"/>
	</g>
	<g>
		<g>
			<path class="st3" d="M1125.5,55.6c-1.7-1-4.9-0.8-6.5,0.4c-5.7,3.9-9.4,9.8-12.1,17.8c11.7,0.3,22.4,0.5,34.3,0.8
				C1136.9,66.1,1132.4,59.5,1125.5,55.6"/>
			<path class="st4" d="M552.2,221.8l-19.6,0c-4.8,0-8.2-4.5-6.5-8.8l61.1-154c1-2.5,3.6-4.2,6.5-4.2l19.6,0c4.8,0,8.2,4.5,6.5,8.8
				l-61.1,154C557.7,220.1,555.1,221.8,552.2,221.8"/>
			<path class="st4" d="M669.2,76.2c-21.6,0.3-37.9,8.3-48.9,24.1l21.3,0c5.7-6,12.9-9.1,21.7-9.4c10.8,0.3,14.5,5.1,11.2,14.2
				l-16.4,0c-28.4-1-45.5,7.7-51.1,25.9c-4.9,13.9,2.8,21.7,23.9,22.1l47.2,0l18.1-45.2C705.6,86.2,696.6,75.6,669.2,76.2
				 M665.8,128.8c-0.3,2.5-2,4.8-5.7,6.4c-6.5,2.8-29.9,5.3-27.4-6.8c1.7-7.9,13.4-9.7,21.4-9.1C660.6,119.7,666.7,122,665.8,128.8"
				/>
			<path class="st3" d="M898.4,57c-1.4-1.4-3.1-2.2-5.2-2.2h-61.5c-0.7,0-1.4,0.2-2.1,0.6c-0.7,0.4-1.4,0.8-2,1.4
				c-0.6,0.5-1.2,1.1-1.6,1.7c-0.5,0.6-0.8,1.1-1.1,1.6L788,147.3c-0.2,0.5-0.2,0.9-0.2,1v1c0,2.6,1.5,3.8,4.5,3.8h59.1
				c1.8,0,3.6-0.3,5.4-0.8c1.8-0.5,3.5-1.2,5-2.1c1.6-0.9,3-2,4.2-3.2c1.2-1.2,2.1-2.6,2.7-4.2l13.8-33.7c0.2-0.5,0.3-1,0.3-1.7
				c0-0.2,0-0.5-0.1-0.7c0-0.2-0.1-0.4-0.2-0.7c-0.1-0.2-0.2-0.4-0.3-0.6c-0.1-0.2-0.3-0.4-0.4-0.5c-0.2-0.2-0.4-0.3-0.5-0.5
				c-0.2-0.2-0.4-0.3-0.7-0.4c-0.1,0-0.2-0.1-0.3-0.1c-0.1-0.1-0.2-0.1-0.3-0.2c0,0,0,0,0.1,0c0.1-0.1,0.2-0.1,0.4-0.1
				c0.1,0,0.3-0.1,0.4-0.1c0.3-0.1,0.6-0.2,0.9-0.3c0.3-0.1,0.5-0.2,0.8-0.4c0.3-0.1,0.5-0.3,0.8-0.4c0.2-0.1,0.5-0.3,0.7-0.5
				c0.2-0.2,0.4-0.3,0.6-0.5c1.2-1.1,2.1-2.3,2.7-3.8L900,64.9c0.2-0.5,0.4-1.1,0.4-1.6s0.1-1,0.1-1.6C900.4,60,899.7,58.4,898.4,57
				 M870.5,114.7c-0.3,2.5-2,4.8-5.7,6.4c-6.5,2.8-29.9,5.3-27.4-6.8c1.7-7.9,13.4-9.7,21.4-9.1C865.4,105.7,871.4,108,870.5,114.7
				 M880.6,83.9c-0.3,2.5-2,4.8-5.7,6.4c-6.5,2.8-29.9,5.3-27.4-6.8c1.7-7.9,13.4-9.7,21.4-9.1C875.4,74.9,881.5,77.2,880.6,83.9"/>
			<path class="st4" d="M782.4,85.8l-0.5,1.4c-1,2.6-3.7,4.3-6.6,4.3l-14.4,0c-9.5-0.3-15.7,3.6-18.6,11.8L724,148.8
				c-1,2.6-3.7,4.3-6.6,4.3l-15.2,0c-5,0-8.4-4.6-6.6-9l16.3-40.9c7.1-17.6,14.1-26.4,33.3-26.4l30.6,0
				C780.7,76.8,784.2,81.4,782.4,85.8"/>
			<path class="st4" d="M1159.1,88.9l-0.5,1.4c-1,2.6-3.7,4.3-6.6,4.3l-14.4,0c-9.5-0.3-15.7,3.6-18.6,11.8l-17.1,42.4
				c-1,2.6-3.7,4.3-6.6,4.3l-15.2,0c-5,0-8.4-4.6-6.6-9l15.2-37.8c7.1-17.6,14.1-26.4,33.3-26.4l30.6,0
				C1157.4,79.9,1160.9,84.6,1159.1,88.9"/>
			<path class="st4" d="M525.6,76.1c-27.2,0.9-46.4,13.8-57.7,38.7c-8.1,23.6,0.9,37,26.9,38.3c27.2-0.9,45.9-14.3,56.5-38.2
				C560.3,89.7,551.8,76.8,525.6,76.1 M527.7,110.7c-1.1,2-2.4,3.8-4.1,5.3c-1.7,1.5-3.6,2.7-5.8,3.6c-2.2,0.9-4.5,1.4-6.8,1.4
				c-2.8,0-5-0.6-6.6-1.8c-1.6-1.2-2.4-3.2-2.4-5.9c0-2.2,0.5-4.3,1.6-6.2c1.1-2,2.4-3.7,4.1-5.2c1.7-1.5,3.6-2.7,5.8-3.6
				c2.2-0.9,4.4-1.3,6.7-1.3c2.8,0,5,0.5,6.7,1.5c1.7,1,2.5,3,2.5,6C529.3,106.6,528.7,108.6,527.7,110.7"/>
			<path class="st4" d="M435.3,55l-29.5,0c-4.6,0-8.8,2.7-10.4,6.8L363,144c-1.8,4.4,1.7,9.1,6.7,9.1l8.6,0c2.9,0,5.6-1.7,6.7-4.2
				l17.2-42.2l13.4,0c28.7,0.3,40.2,0.6,47.2-13.9C474.8,67.8,464.2,54.7,435.3,55 M439.6,82.4c-1.1,2-2.4,3.8-4.1,5.3
				c-1.7,1.5-3.6,2.7-5.8,3.6c-2.2,0.9-4.5,1.4-6.8,1.4c-2.8,0-5-0.6-6.6-1.8c-1.6-1.2-2.4-3.2-2.4-5.9c0-2.2,0.5-4.3,1.6-6.2
				c1.1-2,2.4-3.7,4.1-5.2c1.7-1.5,3.6-2.7,5.8-3.6c2.2-0.9,4.4-1.3,6.7-1.3c2.8,0,5,0.5,6.7,1.5c1.7,1,2.5,3,2.5,6
				C441.1,78.3,440.6,80.4,439.6,82.4"/>
			<path class="st4" d="M1317.9,76.9c-27,0.6-45.9,13.6-56.8,38.9c-0.1,0.2-0.1,0.3-0.2,0.5c-8,23.5,2,35.7,30,36.6
				c15.6,0,29.5-3.9,41.5-11.8c0.9-0.6,1.5-1.4,1.9-2.3c1.7-4.2-3.1-8.2-7.3-6.1c-9,4.4-17.5,6.6-25.7,6.6
				c-12.3-0.5-18.6-4.8-19-12.9c-0.1-2.8,2.3-5,5.3-5l51.1,0c2.2,0,4.2-1.3,5-3.3C1354.4,90,1345.8,76.3,1317.9,76.9 M1326.9,98.5
				c-0.3,2.5-2,4.8-5.7,6.4c-6.5,2.8-29.9,5.3-27.4-6.8c1.7-7.9,13.4-9.7,21.4-9.1C1321.7,89.5,1327.8,91.8,1326.9,98.5"/>
			<path class="st4" d="M950.2,76.9c-27,0.6-45.9,13.6-56.8,38.9c-0.1,0.2-0.1,0.3-0.2,0.5c-8,23.5,2,35.7,30,36.6
				c15.6,0,29.5-3.9,41.5-11.8c0.9-0.6,1.5-1.4,1.9-2.3c1.7-4.2-3.1-8.2-7.3-6.1c-9,4.4-17.5,6.6-25.7,6.6
				c-12.3-0.5-18.6-4.8-19-12.9c-0.1-2.8,2.3-5,5.3-5l51.1,0c2.2,0,4.2-1.3,5-3.3C986.8,90,978.2,76.3,950.2,76.9 M959.3,98.5
				c-0.3,2.5-2,4.8-5.7,6.4c-6.5,2.8-29.9,5.3-27.4-6.8c1.7-7.9,13.4-9.7,21.4-9.1C954.1,89.5,960.2,91.8,959.3,98.5"/>
			<path class="st4" d="M1046.7,76.5c-21.6,0.3-37.9,8.3-48.9,24.1l21.3,0c5.7-6,12.9-9.1,21.7-9.4c10.8,0.3,14.5,5.1,11.2,14.2
				l-16.4,0c-28.4-1-45.5,7.7-51.1,26c-4.9,13.9,3,21.5,24.1,21.8l47.2,0l18-44.9C1083.1,86.5,1074.1,75.9,1046.7,76.5
				 M1046.8,128.7c-0.3,2.5-2,4.8-5.7,6.4c-6.5,2.8-29.9,5.3-27.4-6.8c1.7-7.9,13.4-9.7,21.4-9.1
				C1041.6,119.7,1047.7,122,1046.8,128.7"/>
			<path class="st4" d="M1183.7,143.2v-1.3c0-0.2,0.1-0.6,0.3-1.2l25.2-69.5c0.2-0.6,0.3-1,0.3-1.2v-1.5c0-1.3-0.4-2.5-1.2-3.5
				c-0.8-1.1-1.9-1.6-3.2-1.6h-11.3c-1.3,0-2.4-0.6-3.3-1.7c-0.9-1.1-1.4-2.3-1.4-3.5c0-1.3,0.3-2.6,0.9-4c0.6-1.4,1.3-2.6,2.3-3.8
				c0.9-1.2,2-2.2,3.2-2.9c1.2-0.8,2.5-1.2,3.9-1.2h89.4c1.4,0,2.4,0.6,3.1,1.7c0.7,1.1,1,2.2,1,3.3c0,2.7-0.8,4.9-2.4,6.8
				c-1.6,1.9-3.5,3.4-5.9,4.5c-0.3,0.1-0.7,0.2-1.3,0.4c-0.6,0.2-0.9,0.3-1,0.3h-11c-2.3,0-4.4,0.9-6.4,2.7c-2,1.8-3.4,3.7-4.2,5.7
				l-25.2,68.9c-0.8,2.3-2.3,4.1-4.5,5.7c-2.2,1.5-4.5,2.3-7,2.3h-34c-1.7,0-3.1-0.5-4.3-1.4C1184.3,146.3,1183.7,145,1183.7,143.2z
				"/>
			<path class="st4" d="M1349.2,141.9v-2.4c0-0.8,0.2-1.6,0.6-2.5l13.5-37.2c0.6-1.7,1.6-3.4,3-5.2c1.4-1.8,3-3.5,4.9-5
				c1.8-1.5,3.8-2.8,5.8-3.7c2.1-1,4-1.5,5.9-1.5h81.6c1.4,0,2.5,0.5,3.2,1.6c0.8,1.1,1.2,2.2,1.2,3.5c0,1.5-0.3,3-1,4.5
				c-0.7,1.4-1.6,2.7-2.6,3.8c-1.1,1.1-2.4,2-3.8,2.7c-1.5,0.7-3,1-4.6,1h-36.1c-0.8,0-1.7,0.2-2.7,0.7c-1,0.5-1.9,1.1-2.8,1.9
				c-0.9,0.7-1.7,1.5-2.4,2.4c-0.7,0.8-1.1,1.6-1.3,2.3l-6.9,18.7c-0.2,0.6-0.3,1-0.3,1.3v1.3c0,1.2,0.4,2.4,1.2,3.6
				c0.8,1.2,1.9,1.8,3.2,1.8h37c1.4,0,2.5,0.6,3.3,1.7c0.8,1.1,1.3,2.3,1.3,3.4c0,1.6-0.3,3.1-1,4.5c-0.7,1.5-1.6,2.7-2.7,3.8
				c-1.1,1.1-2.4,1.9-3.9,2.6c-1.5,0.7-3.1,1-4.6,1h-76.9c-3.4,0-6.3-0.9-8.6-2.7C1350.3,148.1,1349.2,145.5,1349.2,141.9z"/>
			<path class="st4" d="M1463.1,146.2c0-0.2,0.1-0.6,0.3-1.2l31.4-86.3c0.3-0.8,0.8-1.7,1.4-2.6c0.6-1,1.4-1.9,2.3-2.7
				c0.9-0.8,1.8-1.5,2.7-2.1c0.9-0.6,1.8-0.9,2.7-0.9h23.9c1.3,0,2.3,0.6,3,1.8s1.1,2.3,1.1,3.4v1.2c0,0.2-0.1,0.6-0.3,1.2
				l-6.5,18.4c-0.2,0.8-0.3,1.3-0.3,1.5v1.3c0,1.4,0.3,2.6,1,3.7c0.7,1.1,1.8,1.6,3.4,1.6h29.2c0.2,0.1,0.8,0.3,1.8,0.5
				c1,0.2,1.8,0.5,2.4,0.7c2,0.8,3.4,2,4.4,3.7c1,1.7,1.5,3.5,1.5,5.5c0,1.5-0.2,2.9-0.6,4.4l-16.3,44.9c-1,2.4-2.5,4.5-4.6,6.1
				c-2.1,1.6-4.5,2.4-7.1,2.4c-1.9,0-3.3-0.4-4.4-1.3c-1.1-0.9-1.6-2.3-1.6-4.2v-1.3c0-0.3,0.1-0.7,0.3-1.3l12.7-35.3
				c0.3-0.7,0.4-1.4,0.4-2.2c0-1-0.3-2-1-3.1c-0.6-1.1-1.5-1.7-2.7-1.7h-21.2c-1.1,0-2.1,0.3-3.1,0.8c-1,0.5-1.9,1.2-2.7,2.1
				c-0.8,0.8-1.6,1.7-2.2,2.6c-0.6,0.9-1.1,1.8-1.4,2.7l-12.5,33.8c-0.9,2.3-2.4,4.3-4.5,6c-2.1,1.7-4.4,2.5-7,2.5h-19.5
				c-1.7,0-3.1-0.5-4.3-1.4c-1.2-0.9-1.8-2.2-1.8-3.9V146.2z"/>
		</g>
		<g>
			<g>
				<path class="st4" d="M840.9,276.7L840.9,276.7c-0.9-2.2-4.1-1.5-4.1,0.8v25.9c0,2.2-0.7,4-2.2,5.5c-1.5,1.5-3.3,2.2-5.5,2.2
					h-7.6c-1.2,0-2.1-1-2.1-2.1v-72.3h-1.3c-0.4,14.6-0.9,26-1.6,34.1c-0.6,8.1-1.6,14.9-2.8,20.6c-0.8,3.5-2.4,5.3-5,5.3
					c-0.8,0-1.8-0.2-3-0.6l-6.1-2.2c-1.1-0.4-1.7-1.6-1.3-2.7c2.7-7.9,4.9-16,6.7-24.3c1.8-8.4,3.1-17.7,3.9-27.8
					c0.1-1.2-0.9-2.3-2.1-2.3h-5.1c-1.3,0-2.3-1.1-2.1-2.4l1.1-7.7c0.3-1.8,1.1-3.2,2.7-4.4c1.5-1.1,3.2-1.7,5.2-1.7h8.8
					c1.2,0,2.1-1,2.1-2.1V204c0-3.3,2.3-4.9,6.8-4.9h8.5c1.2,0,2.1,1,2.1,2.1v17.2c0,1.2,1,2.1,2.1,2.1H849c1.3,0,2.3,1.2,2.1,2.5
					l-1.4,8.6c-0.3,1.9-1.1,3.2-2.2,3.9c-1.1,0.8-2.7,1.1-4.7,1.1h-3.9c-1.2,0-2.1,1-2.1,2.1v4.4c0,0.5,0.2,1,0.5,1.4
					c4.9,5.4,9.8,12.1,14.6,20c0.8,1.1,1.1,2.3,1.1,3.5c0,1.7-0.8,3.2-2.3,4.4l-6.6,5.1C843,278.5,841.4,278.1,840.9,276.7z
					 M914.6,296.2c1,0.7,1.3,2.1,0.5,3.1l-5.6,7.4c-2.2,2.8-4.4,4.2-6.7,4.2c-1.9,0-3.7-0.8-5.7-2.4c-1.3-1.1-2.9-2.7-4.8-4.8
					c-0.8-0.9-2.2-1-3.1-0.1c-1.4,1.4-3,2.9-4.7,4.4c-2.4,2.1-4.7,3.2-7.1,3.2c-2.5,0-4.5-1.2-5.9-3.7l-4.5-8.1
					c-0.5-1-0.2-2.2,0.7-2.8c4.1-2.7,7.8-5.5,10.9-8.4c0.8-0.7,0.9-1.8,0.3-2.7c-1.5-2.4-3.1-5.1-4.7-7.9c-1-1.7-3.6-1.3-4,0.7
					c-2,11.2-4.7,20.6-8.1,28.1c-1.4,2.9-3.4,4.4-5.8,4.4c-1.5,0-3.3-0.5-5.4-1.4l-6.5-2.8c-1.1-0.5-1.6-1.9-1-3
					c4.9-8.8,8.7-19.9,11.5-33.2c2.8-13.9,4.4-30.8,4.6-50.8c0-1.2-1-2.2-2.1-2.2H851c-1.3,0-2.3-1.2-2.1-2.5l1.1-7.5
					c0.3-1.9,1.1-3.3,2.4-4.5c1.3-1.1,3-1.7,4.9-1.7h42.8c2.8,0,4.8,0.7,6.2,2.2c1.3,1.5,2,3.4,2,5.9c0,1.5-0.2,2.8-0.5,3.9
					c-1.3,5.4-2.6,9.9-3.9,13.5c-0.9,2.6-1.8,5.1-2.9,7.5c-0.6,1.4,0.4,3,2,3h2.9c2.4,0,4.3,0.9,5.8,2.6c1.5,1.7,2.2,3.8,2,6.2
					c-0.8,14.4-4.4,27.3-10.7,38.8c-0.5,0.9-0.3,1.9,0.4,2.6C907.1,290.6,910.8,293.6,914.6,296.2z M873.9,250.5
					c4.3,7.4,9.1,14.4,14.4,20.8c1,1.2,2.9,1,3.6-0.4c2.2-4.6,3.8-9.7,4.6-15.2c0.2-1.3-0.8-2.5-2.1-2.5h-6.9c-2.9,0-5-0.8-6.5-2.4
					c-1.5-1.6-2.2-3.6-2.2-6.1c0-2.1,0.6-4.2,1.8-6.3c1.8-3.3,3.4-6.5,4.5-9.5c0.9-2.5,1.9-5.5,2.8-9c0.3-1.4-0.7-2.7-2.1-2.7h-9
					c-1.2,0-2.1,1-2.1,2.1c0,11-0.4,21-1,29.9C873.6,249.7,873.7,250.1,873.9,250.5z"/>
			</g>
			<g>
				<path class="st4" d="M1018.4,266.8c5.2-10.1,10-21.6,14.4-34.4c0.5-1.5-0.6-3-2.1-3h-7.6c-1.4,0-2.4-1.2-2.3-2.6l1-7.5
					c0.5-4,2.4-6.1,5.8-6.1l9.2,0c1,0,1.9-0.7,2.2-1.7c1.1-4.3,2-8,2.7-11.1c0.3-1.3,1.6-2,2.8-1.7c2.2,0.6,5.6,1.5,7.8,2.1
					c1.2,0.3,1.9,1.5,1.6,2.7c-0.2,1.1-0.4,2-0.5,2.8c0,0.1,0,0.1,0,0.2l-0.9,4c-0.3,1.4,0.8,2.8,2.2,2.8h14.2
					c1.4,0,2.4,1.2,2.3,2.6l-0.9,7.5c-0.3,2-0.8,3.5-1.6,4.5c-0.8,1-2.1,1.5-3.9,1.5H1050c-1,0-1.9,0.7-2.2,1.7
					c-3.4,13.2-7.5,26.3-12.3,39.3c-1.2,3.1-2.9,4.7-5.2,4.7c-1.2,0-2.4-0.4-3.7-1.1l-7.3-4.1
					C1018.2,269.2,1017.9,267.9,1018.4,266.8z M1066.9,280.2c0.9,3.8,2,9,3.3,15.6l0.5,2.8c0.3,1.3,0.4,2.4,0.4,3.4
					c0,3-1.2,5-3.5,5.9l-6.4,2.5c-1.5,0.6-3-0.5-3.1-2c0-0.6,0-1.1-0.1-1.6c0-1.4-1.4-2.5-2.8-2.1l-21.1,4.7
					c-0.6,0.2-1.4,0.3-2.5,0.3c-2.1,0-3.7-0.7-4.8-2c-1.1-1.3-1.6-3-1.6-5.1c0-1.8,0.4-3.5,1.3-5.2c8-15.2,15.8-35.4,23.5-60.6
					c0.4-1.2,1.6-1.9,2.8-1.5l8,2.2c2.9,0.8,4.3,2.5,4.3,5.3c0,1.2-0.3,2.7-1,4.5c-2.4,6.5-5.4,13.8-8.9,21.9
					c-2.7,6.3-5.3,12.1-7.8,17.4c-0.8,1.7,0.8,3.6,2.6,3.2l5.3-1.4c1.1-0.3,1.8-1.3,1.7-2.4c-0.5-6.3-1.2-11.7-1.9-16.2c0,0,0,0,0,0
					c0,0,3.7-1.1,6.2-1.9c1.2-0.4,2.5,0.3,2.8,1.5C1065.2,273.3,1066.2,276.9,1066.9,280.2z M1120.9,290.5h10.5
					c1.4,0,2.5,1.3,2.2,2.7l-1.5,7.4c-0.8,4-2.8,6.1-6.2,6.1h-33.7c-1.3,0-2.3,1-2.3,2.3l0,0c0,1.3-1,2.3-2.3,2.3h-8.3
					c-2.1,0-3.8-0.7-5-2c-1.2-1.3-1.8-3.1-1.8-5.5v-45.2c0-1-0.6-1.8-1.5-2.1l-5-1.8c-1.2-0.4-1.8-1.7-1.4-2.8
					c2.5-7.9,4.9-16.3,7.2-25.2c2.3-9,4.1-17.6,5.5-25.9c0.2-1.2,1.3-2,2.5-1.9l9.7,1c4,0.5,6.1,2.3,6.1,5.4c0,1.3-0.3,2.7-0.8,4.2
					l-0.6,1.8c-0.5,1.5,0.6,3,2.1,3h1c1.4,0,2.4-1.2,2.2-2.6l-0.9-6.4c-0.2-2,0.4-3.5,1.6-4.5c1.3-1,2.8-1.5,4.7-1.5h8.5
					c1.1,0,2.1,0.8,2.2,1.9l1.6,11c0.2,1.1,1.1,1.9,2.2,1.9h11.7c1.4,0,2.5,1.3,2.2,2.7l-1.4,7.4c-0.3,1.9-1,3.4-2,4.5
					c-1,1.1-2.5,1.6-4.5,1.6h-4.9c-1.3,0-2.3,1-2.3,2.3v4.9c0,1.3,1,2.3,2.3,2.3h9c1.4,0,2.5,1.3,2.2,2.7l-1.4,7.1
					c-0.8,4-2.9,6.1-6.3,6.1h-3.5c-1.3,0-2.3,1-2.3,2.3v4.8c0,1.3,1,2.3,2.3,2.3h9c1.4,0,2.5,1.3,2.2,2.7l-1.3,7.2
					c-0.8,4-2.9,6.1-6.4,6.1h-3.5c-1.3,0-2.3,1-2.3,2.3v4.9C1118.6,289.4,1119.7,290.5,1120.9,290.5z M1098.6,230.4h-6.3
					c-1.3,0-2.3,1-2.3,2.3v4.9c0,1.3,1,2.3,2.3,2.3h6.3c1.3,0,2.3-1,2.3-2.3v-4.9C1100.8,231.4,1099.8,230.4,1098.6,230.4z
					 M1098.6,255.7h-6.3c-1.3,0-2.3,1-2.3,2.3v4.8c0,1.3,1,2.3,2.3,2.3h6.3c1.3,0,2.3-1,2.3-2.3V258
					C1100.8,256.8,1099.8,255.7,1098.6,255.7z M1092.3,290.5h6.3c1.3,0,2.3-1,2.3-2.3v-4.9c0-1.3-1-2.3-2.3-2.3h-6.3
					c-1.3,0-2.3,1-2.3,2.3v4.9C1090,289.4,1091,290.5,1092.3,290.5z"/>
			</g>
			<g>
				<path class="st4" d="M1256.2,223.2h-14.6c-2.5,0-4.3-2.2-4-4.6l1-7.3c0.2-1.3,0.7-2.4,1.6-3.2c0.9-0.8,2.2-1.1,3.8-1.1h16.2
					v-1.6c0-1.9,0.6-3.4,1.8-4.6c1.2-1.2,2.8-1.8,4.6-1.8h9.7c2.2,0,4,1.8,4,4v0c0,2.2,1.8,4,4,4h25.1v-1.6c0-1.9,0.6-3.4,1.8-4.6
					c1.2-1.2,2.8-1.8,4.6-1.8h9.7c2.2,0,4,1.8,4,4v0c0,2.2,1.8,4,4,4h14.5c2.5,0,4.4,2.2,4,4.6l-0.8,5.7c-0.6,3.9-2.4,5.8-5.4,5.8
					h-16.3v1.8c0,1.9-0.6,3.4-1.8,4.6c-1.2,1.2-2.8,1.8-4.6,1.8h-9.7c-2.2,0-4-1.8-4-4v-0.1c0-2.2-1.8-4-4-4h-25.1v1.8
					c0,1.9-0.6,3.4-1.8,4.6c-1.2,1.2-2.8,1.8-4.6,1.8h-9.7c-2.2,0-4-1.8-4-4v-0.1C1260.3,225,1258.5,223.2,1256.2,223.2z"/>
				<path class="st4" d="M1259,250.4L1259,250.4c3.6,0.6,6.1,3.9,5.8,7.5c-0.5,5.2-1.1,10.5-1.9,15.7c-1.2,7.4-2.7,13.6-4.5,18.6
					c-0.5,1.3-1.3,2.4-2.5,3.3c-1.1,0.8-2.4,1.3-3.9,1.3c-1.1,0-2.4-0.4-3.8-1.1l-5.1-2.8c-3.3-1.8-4.5-6-2.8-9.4
					c4.4-8.6,7.9-17.9,10.7-28C1252.1,252,1255.5,249.8,1259,250.4z"/>
				<path class="st4" d="M1342.7,292.5c3.1,0.3,5.4,2.9,5.4,6v3.3c0,2.2-0.7,4-2.2,5.5c-1.5,1.5-3.3,2.2-5.5,2.2h-62.9
					c-2.2,0-4-0.7-5.5-2.2c-1.5-1.5-2.2-3.3-2.2-5.5v-56.3c0-2.2,0.7-4,2.2-5.5c1.5-1.5,3.3-2.2,5.5-2.2h7.8c2.6,0,4.7,2.1,4.7,4.7
					v45.4c0,2.6,2.1,4.7,4.7,4.7h14.3C1310.9,292.6,1336.7,291.9,1342.7,292.5z"/>
				
					<linearGradient id="SVGID_6_" gradientUnits="userSpaceOnUse" x1="1116.8134" y1="243.6607" x2="1452.8783" y2="392.3267" gradientTransform="matrix(1.0289 0.3506 -0.3675 1.0783 161.6381 -487.9761)">
					<stop  offset="0" style="stop-color:#0073BA"/>
					<stop  offset="4.820750e-04" style="stop-color:#0073BA"/>
					<stop  offset="0.3821" style="stop-color:#2DAC9E"/>
					<stop  offset="1" style="stop-color:#2DAC9E"/>
				</linearGradient>
				<path class="st5" d="M1303.3,238.9c2.9-1.5,5.9-1.7,9-0.7c2.9,1,5.1,3,6.5,5.9c1.4,3,1.6,6,0.5,9.2c-1.1,3.1-3.1,5.5-6,6.9
					c-2.9,1.5-5.9,1.7-8.8,0.8c-3.1-1.1-5.3-3.1-6.7-6c-1.4-3-1.6-6-0.5-9.2C1298.4,242.7,1300.4,240.4,1303.3,238.9z"/>
				
					<linearGradient id="SVGID_7_" gradientUnits="userSpaceOnUse" x1="937.5558" y1="452.7501" x2="1162.9814" y2="548.2454" gradientTransform="matrix(-1.0903 0.6307 -0.7741 -1.134 2836.6292 176.5201)">
					<stop  offset="0" style="stop-color:#0073BA"/>
					<stop  offset="4.820750e-04" style="stop-color:#0073BA"/>
					<stop  offset="0.3821" style="stop-color:#2DAC9E"/>
					<stop  offset="1" style="stop-color:#2DAC9E"/>
				</linearGradient>
				<path class="st6" d="M1327.6,280.3c-5.9-5.9-8.9-18.1-0.9-26.4c3.7-3.8,9.8-5,16-0.5c9,6.6,10.8,21.4,3.5,28.3
					C1340.9,286.9,1333.3,286.3,1327.6,280.3"/>
			</g>
			<g>
				<path class="st4" d="M615.3,200.9c1.3-1.2,3.2-1.8,5.6-1.8h6.6c3.3,0,6,2.7,6,6V303c0,5.5-2.5,8.2-7.4,8.2h-6.8
					c-3.3,0-6-2.7-6-6v-11.6c0-3.9-3.7-6.8-7.5-5.8c-4.6,1.2-9.4,2.8-14.1,3.7c-6.2,1.1-11.1-3.3-10.4-9.7c0.8-7.3,7.2-8.1,12.9-9.9
					c3.4-1.1,6.6-2.6,9.5-4.6c5.8-4.1,9.6-10.4,9.6-17.6c0,0,0-2.8,0-2.8c0-3.3,0-24.8,0-28.2V206
					C613.4,203.8,614,202.1,615.3,200.9z M694.3,280.2c1,1.3,1.5,2.8,1.5,4.5v17.9c0,2.2-0.7,4-2.2,5.5c-1.5,1.5-3.3,2.2-5.5,2.2
					h-35.6c-2.2,0-4-0.7-5.5-2.2c-1.5-1.5-2.2-3.3-2.2-5.5v-97.5c0-3.3,2.7-6,6-6h6.5c2.2,0,4,0.7,5.5,2.2c1.5,1.5,2.2,3.3,2.2,5.5
					v11.3c0,5.4,6.6,8,10.3,4.1c1.2-1.2,2.3-2.5,3.5-3.8c2.3-2.6,6.1-2.7,8.6-0.4c2.6,2.5,5.4,5.2,5.4,5.2c1.7,1.6,2.5,3.4,2.5,5.4
					c0,2-0.9,3.8-2.7,5.3c-7.3,6.1-15.4,11.4-24.4,15.9c-2,1-3.4,3.1-3.4,5.4v32.8c0,3.3,2.7,6,6,6l0,0c3.3,0,6-2.7,6-6v-5.9
					c0-3.8,3.5-6.7,7.3-5.9l6,1.3C691.9,278,693.3,278.9,694.3,280.2z"/>
				<path class="st4" d="M603.8,229.9c2.9,2.9,4.3,6.2,4.3,9.9c0,3.9-1.4,7.3-4.3,10.2c-2.7,2.7-6,4-9.9,4c-4.1,0-7.6-1.3-10.2-4
					c-2.7-2.9-4-6.3-4-10.2c0-4.1,1.3-7.4,4-9.9c2.9-2.9,6.3-4.3,10.2-4.3C597.6,225.6,600.9,227,603.8,229.9z"/>
			</g>
		</g>
	</g>
</g>
</svg>
